# xmcd
#
# Track frame offsets:
#	150
#	14812
#	25537
#	40210
#	56782
#	79060
#	95390
#	107230
#	122962
#	145550
#	164082
#	184425
#	197260
#
# Disc length: 2800 seconds
#
# Revision: 0
# Processed by: cddbd v1.4PL0 Copyright (c) Steve Scherf et al.
# Submitted via: dBpowerAMP V4.0
#
DISCID=b20aee0d
DTITLE=Madcat and Kane - Key to the Highway
DYEAR=1992
DGENRE=Blues
TTITLE0=Key To The Highway
TTITLE1=Baby Please Don't Go
TTITLE2=Gelp Me
TTITLE3=Take Five
TTITLE4=Drown in My Own Tears
TTITLE5=Rollin' and Tumblin'
TTITLE6=New Harmonica Boogie
TTITLE7=Mellow Down Easy
TTITLE8=Sweet Home Chicago
TTITLE9=Big Road Blues
TTITLE10=Daddy, Where You Been So Long?
TTITLE11=Tribute To Johnny Shines
TTITLE12=Body And Soul
EXTD=
EXTT0=
EXTT1=
EXTT2=
EXTT3=
EXTT4=
EXTT5=
EXTT6=
EXTT7=
EXTT8=
EXTT9=
EXTT10=
EXTT11=
EXTT12=
PLAYORDER=
